# Blender 4.2.1 LTS
# www.blender.org
mtllib 10 sider .mtl
o Circle
v 0.000000 -0.732631 -10.000000
v -5.877852 -0.732631 -8.090170
v -9.510566 -0.732631 -3.090170
v -9.510566 -0.732631 3.090170
v -5.877852 -0.732631 8.090170
v 0.000000 -0.732631 10.000000
v 5.877852 -0.732631 8.090170
v 9.510566 -0.732631 3.090170
v 9.510566 -0.732631 -3.090170
v 5.877852 -0.732631 -8.090170
v -5.877852 5.273829 -8.090170
v 0.000000 5.273829 -10.000000
v -9.510566 5.273829 -3.090170
v -9.510566 5.273829 3.090170
v -5.877852 5.273829 8.090170
v 0.000000 5.273829 10.000000
v 5.877852 5.273829 8.090170
v 9.510566 5.273829 3.090170
v 9.510566 5.273829 -3.090170
v 5.877852 5.273829 -8.090170
vn -0.0000 -1.0000 -0.0000
vn -0.0000 1.0000 -0.0000
vn -0.8090 -0.0000 -0.5878
vn 0.8090 -0.0000 -0.5878
vn 0.3090 -0.0000 0.9511
vn -1.0000 -0.0000 -0.0000
vn 0.3090 -0.0000 -0.9511
vn 0.8090 -0.0000 0.5878
vn -0.8090 -0.0000 0.5878
vn -0.3090 -0.0000 -0.9511
vn 1.0000 -0.0000 -0.0000
vn -0.3090 -0.0000 0.9511
vt 0.250000 0.525731
vt 0.095491 0.475528
vt -0.000000 0.344095
vt -0.000000 0.181636
vt 0.095492 0.050203
vt 0.250000 0.000000
vt 0.404509 0.050203
vt 0.500000 0.181636
vt 0.500000 0.344096
vt 0.404509 0.475528
vt 0.500000 0.344096
vt 0.500000 0.181636
vt 0.595491 0.050203
vt 0.750000 0.000000
vt 0.904509 0.050203
vt 1.000000 0.181636
vt 1.000000 0.344096
vt 0.904509 0.475528
vt 0.750000 0.525731
vt 0.595491 0.475528
vt 0.157889 0.819624
vt 0.157889 0.951057
vt -0.000000 0.951057
vt 0.000000 0.819624
vt 0.473668 0.819624
vt 0.473667 0.951057
vt 0.315778 0.951057
vt 0.315778 0.819624
vt 0.315778 0.819624
vt 0.315778 0.951057
vt 0.157889 0.819624
vt 0.631557 0.525731
vt 0.631557 0.688191
vt 0.473668 0.688191
vt 0.473668 0.525731
vt 0.157889 0.525731
vt 0.157889 0.657164
vt 0.000000 0.657164
vt 0.000000 0.525731
vt 0.473668 0.525731
vt 0.473668 0.657164
vt 0.315778 0.657164
vt 0.315778 0.525731
vt 0.315778 0.525731
vt 0.157889 0.657164
vt 0.157889 0.525731
s 0
f 2/1/1 1/2/1 10/3/1 9/4/1 8/5/1 7/6/1 6/7/1 5/8/1 4/9/1 3/10/1
f 11/11/2 13/12/2 14/13/2 15/14/2 16/15/2 17/16/2 18/17/2 19/18/2 20/19/2 12/20/2
f 2/21/3 3/22/3 13/23/3 11/24/3
f 9/25/4 10/26/4 20/27/4 19/28/4
f 6/29/5 7/30/5 17/22/5 16/31/5
f 3/32/6 4/33/6 14/34/6 13/35/6
f 10/36/7 1/37/7 12/38/7 20/39/7
f 7/40/8 8/41/8 18/42/8 17/43/8
f 4/44/9 5/42/9 15/45/9 14/46/9
f 1/37/10 2/21/10 11/24/10 12/38/10
f 8/41/11 9/25/11 19/28/11 18/42/11
f 5/42/12 6/29/12 16/31/12 15/45/12
