# Blender 4.2.1 LTS
# www.blender.org
mtllib octagon.mtl
o Circle
v 0.000000 0.000000 -1.000000
v -0.707107 0.000000 -0.707107
v -1.000000 0.000000 0.000000
v -0.707107 0.000000 0.707107
v 0.000000 0.000000 1.000000
v 0.707107 0.000000 0.707107
v 1.000000 0.000000 0.000000
v 0.707107 0.000000 -0.707107
v 0.000000 0.000000 -1.000000
v -0.707107 0.000000 -0.707107
v -1.000000 0.000000 0.000000
v -0.707107 0.000000 0.707107
v 0.000000 0.000000 1.000000
v 0.707107 0.000000 0.707107
v 1.000000 0.000000 0.000000
v 0.707107 0.000000 -0.707107
v 0.000000 0.000000 -1.000000
v -0.707107 0.000000 -0.707107
v -1.000000 0.000000 0.000000
v -0.707107 0.000000 0.707107
v 0.000000 0.000000 1.000000
v 0.707107 0.000000 0.707107
v 1.000000 0.000000 0.000000
v 0.707107 0.000000 -0.707107
v 0.000000 0.644680 -1.000000
v -0.707107 0.644680 -0.707107
v -1.000000 0.644680 0.000000
v -0.707107 0.644680 0.707107
v 0.000000 0.644680 1.000000
v 0.707107 0.644680 0.707107
v 1.000000 0.644680 0.000000
v 0.707107 0.644680 -0.707107
v -0.707107 0.000000 -0.707107
v 0.000000 0.000000 -1.000000
v -1.000000 0.000000 0.000000
v -0.707107 0.000000 0.707107
v 0.000000 0.000000 1.000000
v 0.707107 0.000000 0.707107
v 1.000000 0.000000 0.000000
v 0.707107 0.000000 -0.707107
v -0.707107 0.000000 -0.707107
v 0.000000 0.000000 -1.000000
v -1.000000 0.000000 0.000000
v -0.707107 0.000000 0.707107
v 0.000000 0.000000 1.000000
v 0.707107 0.000000 0.707107
v 1.000000 0.000000 0.000000
v 0.707107 0.000000 -0.707107
v -0.707107 0.000000 -0.707107
v 0.000000 0.000000 -1.000000
v -1.000000 0.000000 0.000000
v -0.707107 0.000000 0.707107
v 0.000000 0.000000 1.000000
v 0.707107 0.000000 0.707107
v 1.000000 0.000000 0.000000
v 0.707107 0.000000 -0.707107
vn -0.0000 1.0000 -0.0000
vn -0.0000 -1.0000 -0.0000
vn -0.3827 -0.0000 -0.9239
vn -0.9239 -0.0000 -0.3827
vn -0.9239 -0.0000 0.3827
vn -0.3827 -0.0000 0.9239
vn 0.3827 -0.0000 0.9239
vn 0.9239 -0.0000 0.3827
vn 0.9239 -0.0000 -0.3827
vn 0.3827 -0.0000 -0.9239
vt 0.000000 0.000000
vt 0.004430 0.744780
vt 0.000098 0.379652
vt 0.266131 0.173965
vt 0.542622 0.230732
vt 0.737526 0.376468
vt 0.765709 0.622202
vt 0.626077 0.910222
vt 0.265677 0.999902
vt 0.309807 0.000098
vt 0.611174 0.075803
vt 0.885297 0.271901
vt 0.965560 0.631303
vt 0.841667 0.999902
s 0
f 2/1/1 3/1/1 4/1/1 5/1/1 6/1/1 7/1/1 8/1/1 1/1/1
f 10/1/2 9/1/2 16/1/2 15/1/2 14/1/2 13/1/2 12/1/2 11/1/2
f 5/1/1 13/1/1 14/1/1 6/1/1
f 3/1/1 11/1/1 12/1/1 4/1/1
f 1/1/1 9/1/1 10/1/1 2/1/1
f 8/1/1 16/1/1 9/1/1 1/1/1
f 6/1/1 14/1/1 15/1/1 7/1/1
f 4/1/1 12/1/1 13/1/1 5/1/1
f 2/1/1 10/1/1 11/1/1 3/1/1
f 7/1/1 15/1/1 16/1/1 8/1/1
f 18/1/2 17/1/2 24/1/2 23/1/2 22/1/2 21/1/2 20/1/2 19/1/2
f 26/2/1 27/3/1 28/4/1 29/5/1 30/6/1 31/7/1 32/8/1 25/9/1
f 21/1/1 22/1/1 38/1/1 37/1/1
f 19/1/1 20/1/1 36/1/1 35/1/1
f 17/1/1 18/1/1 33/1/1 34/1/1
f 24/1/1 17/1/1 34/1/1 40/1/1
f 22/1/1 23/1/1 39/1/1 38/1/1
f 20/1/1 21/1/1 37/1/1 36/1/1
f 18/1/1 19/1/1 35/1/1 33/1/1
f 23/1/1 24/1/1 40/1/1 39/1/1
f 41/1/1 42/1/1 34/1/1 33/1/1
f 43/1/1 41/1/1 33/1/1 35/1/1
f 44/1/1 43/1/1 35/1/1 36/1/1
f 45/1/1 44/1/1 36/1/1 37/1/1
f 46/1/1 45/1/1 37/1/1 38/1/1
f 47/1/1 46/1/1 38/1/1 39/1/1
f 48/1/1 47/1/1 39/1/1 40/1/1
f 42/1/1 48/1/1 40/1/1 34/1/1
f 49/1/1 50/1/1 42/1/1 41/1/1
f 51/1/1 49/1/1 41/1/1 43/1/1
f 52/1/1 51/1/1 43/1/1 44/1/1
f 53/1/1 52/1/1 44/1/1 45/1/1
f 54/1/1 53/1/1 45/1/1 46/1/1
f 55/1/1 54/1/1 46/1/1 47/1/1
f 56/1/1 55/1/1 47/1/1 48/1/1
f 50/1/1 56/1/1 48/1/1 42/1/1
f 26/1/3 25/1/3 50/1/3 49/1/3
f 27/1/4 26/1/4 49/1/4 51/1/4
f 28/1/5 27/1/5 51/1/5 52/1/5
f 29/5/6 28/4/6 52/10/6 53/11/6
f 30/6/7 29/5/7 53/11/7 54/12/7
f 31/7/8 30/6/8 54/12/8 55/13/8
f 32/8/9 31/7/9 55/13/9 56/14/9
f 25/1/10 32/1/10 56/1/10 50/1/10
